<svg width="20" height="24" viewBox="0 0 20 24" fill="none" xmlns="http://www.w3.org/2000/svg">
<path d="M9.60018 4.79998C10.9257 4.79998 12.0002 3.72546 12.0002 2.39999C12.0002 1.07451 10.9257 0 9.60018 0C8.27471 0 7.2002 1.07451 7.2002 2.39999C7.2002 3.72546 8.27471 4.79998 9.60018 4.79998Z" fill="#EB1649"/>
<path d="M14.2679 7.33221C13.7999 6.86421 12.9959 6.00021 11.4359 6.00021C11.1839 6.00021 9.73195 6.00021 8.38796 6.00021C5.08797 5.98821 2.39999 3.30023 2.39999 0.000244141H0C0 3.79223 2.53199 7.00821 5.99997 8.0522V24.0001H8.39996V16.8002H10.7999V24.0001H13.1999V9.6602L17.9399 14.4002L19.6319 12.7082L14.2679 7.33221Z" fill="#EB1649"/>
</svg>
