<svg width="58" height="11" viewBox="0 0 58 11" fill="none" xmlns="http://www.w3.org/2000/svg">
<path d="M0.302 11V1.228H6.266V2.264H1.478V5.54H5.986V6.576H1.478V9.964H6.266V11H0.302ZM9.12811 7.346V6.142H12.7821V7.346H9.12811ZM23.6719 2.768H23.6019L22.7759 4.406L20.4379 8.662L18.0999 4.406L17.2739 2.768H17.2039V11H16.0559V1.228H17.6239L20.4239 6.492H20.4939L23.3079 1.228H24.8199V11H23.6719V2.768ZM34.5352 11L33.5552 8.116H29.6072L28.6272 11H27.4372L30.8532 1.228H32.3512L35.7672 11H34.5352ZM31.6092 2.32H31.5392L29.8872 7.08H33.2612L31.6092 2.32ZM37.924 11V10.02H39.296V2.208H37.924V1.228H41.844V2.208H40.472V10.02H41.844V11H37.924ZM44.9915 11V1.228H46.1675V9.964H50.3255V11H44.9915Z" fill="#163DA2"/>
<path d="M53.7051 5.568L52.9211 4.994L54.1951 3.37L52.2071 2.824L52.5151 1.886L54.4471 2.6L54.3631 0.541999H55.3431L55.2591 2.6L57.1911 1.886L57.4991 2.824L55.5111 3.37L56.7851 4.994L56.0011 5.568L54.8531 3.846L53.7051 5.568Z" fill="#EB1649"/>
</svg>
