<svg width="1440" height="2875" viewBox="0 0 1440 2875" fill="none" xmlns="http://www.w3.org/2000/svg">
<path d="M1966.12 1849.46C1966.12 1849.46 1682.61 2186.03 1282.53 2090.13C882.458 1994.23 1227.92 1570.55 1134.07 1403.94C1039.84 1237.98 575.352 1079.62 64.4053 1754.62C-446.541 2429.63 -87.6426 115.538 -87.6426 115.538" stroke="#F8F8F8" stroke-width="3" stroke-miterlimit="10"/>
<path d="M1949.54 1882.6C1949.54 1882.6 1686.62 2163.94 1286.82 2068.2C887.017 1972.46 1211.45 1584.57 1117.22 1418.62C1023 1252.66 583.966 1062.81 73.0195 1737.81C-437.927 2412.82 -111.902 128.55 -111.902 128.55" stroke="#F8F8F8" stroke-width="3" stroke-miterlimit="10"/>
<path d="M1933.23 1915.88C1933.23 1915.88 1690.8 2142.83 1291.11 2046.28C891.031 1950.38 1194.98 1598.59 1100.75 1432.64C1006.53 1266.68 592.959 1045.34 81.7397 1720.19C-429.48 2395.03 -135.133 140.412 -135.133 140.412" stroke="#F8F8F8" stroke-width="3" stroke-miterlimit="10"/>
<path d="M1917.03 1948.36C1917.03 1948.36 1695.19 2120.09 1295.5 2023.54C895.8 1926.99 1178.24 1612.46 1084.01 1446.5C989.785 1280.55 601.784 1026.9 90.4601 1702.56C-420.109 2376.91 -159.014 152.769 -159.014 152.769" stroke="#F8F8F8" stroke-width="3" stroke-miterlimit="10"/>
<path d="M1900.45 1981.49C1900.45 1981.49 1699.21 2098 1299.51 2001.45C899.435 1905.55 1161.87 1625.67 1067.65 1459.71C973.419 1293.76 610.88 1008.62 99.9333 1683.63C-411.391 2359.29 -182.896 165.126 -182.896 165.126" stroke="#F8F8F8" stroke-width="3" stroke-miterlimit="10"/>
<path d="M1884.14 2014.78C1884.14 2014.78 1703.49 2076.08 1303.69 1980.33C903.615 1884.44 1145.3 1640.5 1051.07 1474.55C956.844 1308.59 619.767 991.968 108.82 1666.97C-402.126 2341.98 -206.779 177.484 -206.779 177.484" stroke="#F8F8F8" stroke-width="3" stroke-miterlimit="10"/>
<path d="M1867.56 2047.92C1867.56 2047.92 1707.78 2054.15 1307.7 1958.25C907.628 1862.35 1128.55 1654.37 1034.33 1488.41C940.101 1322.46 628.863 973.689 117.539 1649.35C-393.407 2324.35 -230.766 190.653 -230.766 190.653" stroke="#F8F8F8" stroke-width="3" stroke-miterlimit="10"/>
<path d="M1851.63 2080.55C1851.63 2080.55 1712.44 2031.57 1312.37 1935.67C912.294 1839.77 1112.46 1667.74 1018.24 1501.78C924.011 1335.83 638.236 955.568 127.016 1630.41C-384.308 2306.07 -254.268 202.357 -254.268 202.357" stroke="#F8F8F8" stroke-width="3" stroke-miterlimit="10"/>
<path d="M1835.05 2113.68C1835.05 2113.68 1716.46 2009.48 1316.38 1913.58C916.308 1817.69 1095.34 1682.26 1001.12 1516.3C906.892 1350.34 646.305 938.439 135.359 1613.44C-375.588 2288.45 -278.148 214.714 -278.148 214.714" stroke="#F8F8F8" stroke-width="3" stroke-miterlimit="10"/>
<path d="M1818.47 2146.82C1818.47 2146.82 1720.47 1987.4 1320.67 1891.66C920.866 1795.92 1078.87 1696.28 984.647 1530.32C890.421 1364.37 655.674 920.318 144.35 1595.98C-366.974 2271.63 -301.654 226.419 -301.654 226.419" stroke="#F8F8F8" stroke-width="3" stroke-miterlimit="10"/>
<path d="M1802.17 2180.1C1802.17 2180.1 1725.03 1965.63 1324.96 1869.73C925.26 1773.18 1062.13 1710.14 968.558 1543.69C874.332 1377.74 664.669 902.85 153.45 1577.7C-357.77 2252.54 -325.26 238.934 -325.26 238.934" stroke="#F8F8F8" stroke-width="3" stroke-miterlimit="10"/>
<path d="M1785.96 2212.58C1785.96 2212.58 1729.42 1942.89 1329.35 1846.99C929.272 1751.09 1046.04 1723.51 951.814 1557.56C857.589 1391.6 673.765 884.571 162.441 1560.23C-348.778 2235.08 -349.143 251.291 -349.143 251.291" stroke="#F8F8F8" stroke-width="3" stroke-miterlimit="10"/>
<path d="M1769.65 2245.87C1769.65 2245.87 1733.71 1920.96 1333.63 1825.06C933.558 1729.16 1029.57 1737.53 935.344 1571.58C841.118 1405.62 682.756 867.103 171.537 1541.95C-339.683 2216.8 -373.025 263.648 -373.025 263.648" stroke="#F8F8F8" stroke-width="3" stroke-miterlimit="10"/>
<path d="M1753.07 2279C1753.07 2279 1737.34 1899.53 1337.92 1803.13C938.495 1706.74 1013.1 1751.56 918.875 1585.6C824.649 1419.64 691.477 849.478 180.53 1524.48C-330.416 2199.49 -396.906 276.006 -396.906 276.006" stroke="#F8F8F8" stroke-width="3" stroke-miterlimit="10"/>
<path d="M1736.49 2312.14C1736.49 2312.14 1741.36 1877.44 1341.93 1781.05C941.859 1685.15 996.36 1765.42 902.134 1599.47C807.908 1433.51 700.575 831.199 189.251 1506.86C-321.696 2181.86 -420.514 288.521 -420.514 288.521" stroke="#F8F8F8" stroke-width="3" stroke-miterlimit="10"/>
<path d="M1720.56 2344.77C1720.56 2344.77 1746.29 1855.02 1346.22 1759.12C946.144 1663.22 979.512 1780.1 885.663 1613.49C791.438 1447.53 709.566 813.733 198.62 1488.74C-312.977 2164.24 -444.396 300.879 -444.396 300.879" stroke="#F8F8F8" stroke-width="3" stroke-miterlimit="10"/>
<path d="M1703.98 2377.9C1703.98 2377.9 1750.31 1832.93 1350.23 1737.04C950.158 1641.14 962.77 1793.96 868.544 1628.01C774.318 1462.05 718.286 796.107 206.689 1471.61C-304.908 2147.11 -467.9 312.583 -467.9 312.583" stroke="#F8F8F8" stroke-width="3" stroke-miterlimit="10"/>
<path d="M1687.68 2411.19C1687.68 2411.19 1754.59 1811.01 1354.79 1715.27C954.718 1619.37 946.574 1808.14 852.348 1642.19C758.122 1476.23 727.552 778.797 216.333 1453.64C-294.887 2128.49 -491.781 324.94 -491.781 324.94" stroke="#F8F8F8" stroke-width="3" stroke-miterlimit="10"/>
<path d="M1671.09 2444.32C1671.09 2444.32 1758.61 1788.92 1358.81 1693.18C959.004 1597.44 929.831 1822.01 835.605 1656.05C741.379 1490.1 735.998 761.014 225.051 1436.02C-286.168 2110.87 -515.391 337.456 -515.391 337.456" stroke="#F8F8F8" stroke-width="3" stroke-miterlimit="10"/>
<path d="M1654.52 2477.46C1654.52 2477.46 1762.89 1766.99 1362.82 1671.09C962.745 1575.2 913.089 1835.87 818.863 1669.92C724.638 1503.96 745.096 742.736 233.772 1418.39C-277.175 2093.4 -539.271 349.813 -539.271 349.813" stroke="#F8F8F8" stroke-width="3" stroke-miterlimit="10"/>
<path d="M1638.59 2510.09C1638.59 2510.09 1767.56 1744.41 1367.48 1648.51C967.409 1552.61 896.998 1849.24 802.772 1683.28C708.546 1517.33 754.466 724.614 243.52 1399.62C-267.427 2074.62 -562.502 361.674 -562.502 361.674" stroke="#F8F8F8" stroke-width="3" stroke-miterlimit="10"/>
<path d="M1622 2543.22C1622 2543.22 1771.57 1722.33 1371.77 1626.59C971.695 1530.69 880.527 1863.26 786.301 1697.31C692.076 1531.35 763.458 707.147 252.238 1381.99C-258.981 2056.84 -587.035 374.528 -587.035 374.528" stroke="#F8F8F8" stroke-width="3" stroke-miterlimit="10"/>
<path d="M1605.7 2576.51C1605.7 2576.51 1775.86 1700.4 1376.06 1604.66C976.257 1508.92 864.061 1877.29 769.835 1711.33C675.336 1545.22 772.18 689.523 260.961 1364.37C-250.363 2040.03 -610.641 387.044 -610.641 387.044" stroke="#F8F8F8" stroke-width="3" stroke-miterlimit="10"/>
<path d="M1589.12 2609.64C1589.12 2609.64 1779.77 1679.12 1380.07 1582.57C979.996 1486.67 846.939 1891.8 752.714 1725.85C658.488 1559.89 780.898 671.897 269.574 1347.55C-241.749 2023.21 -634.146 398.748 -634.146 398.748" stroke="#F8F8F8" stroke-width="3" stroke-miterlimit="10"/>
<path d="M1572.92 2642.12C1572.92 2642.12 1784.16 1656.39 1384.46 1559.83C984.764 1463.28 830.574 1905.02 736.348 1739.06C642.395 1573.26 790.268 653.776 278.671 1329.28C-232.276 2004.28 -658.029 411.105 -658.029 411.105" stroke="#F8F8F8" stroke-width="3" stroke-miterlimit="10"/>
<path d="M1556.61 2675.41C1556.61 2675.41 1788.45 1634.46 1389.02 1538.06C988.946 1442.17 814.378 1919.2 720.152 1753.24C625.654 1587.13 798.988 636.15 288.041 1311.15C-223.555 1986.66 -681.909 423.463 -681.909 423.463" stroke="#F8F8F8" stroke-width="3" stroke-miterlimit="10"/>
<path d="M1540.03 2708.54C1540.03 2708.54 1792.46 1612.37 1392.66 1516.63C992.582 1420.73 797.258 1933.71 703.033 1767.76C608.807 1601.8 807.98 618.682 296.384 1294.18C-214.563 1969.19 -706.168 436.473 -706.168 436.473" stroke="#F8F8F8" stroke-width="3" stroke-miterlimit="10"/>
<path d="M1523.72 2741.83C1523.72 2741.83 1797.02 1590.6 1396.94 1494.7C996.867 1398.81 780.787 1947.74 686.561 1781.78C592.713 1615.17 817.076 600.404 305.752 1276.06C-205.572 1951.72 -729.401 448.335 -729.401 448.335" stroke="#F8F8F8" stroke-width="3" stroke-miterlimit="10"/>
<path d="M1507.52 2774.31C1507.52 2774.31 1801.41 1567.86 1401.33 1471.97C1001.26 1376.07 764.424 1960.95 670.198 1794.99C575.972 1629.04 825.797 582.779 314.85 1257.78C-196.474 1933.44 -753.281 460.693 -753.281 460.693" stroke="#F8F8F8" stroke-width="3" stroke-miterlimit="10"/>
<path d="M1490.94 2807.44C1490.94 2807.44 1805.42 1545.78 1405.62 1450.04C1005.55 1354.14 747.955 1974.97 653.729 1809.01C559.504 1643.06 835.168 564.658 323.844 1240.32C-187.103 1915.32 -776.512 472.554 -776.512 472.554" stroke="#F8F8F8" stroke-width="3" stroke-miterlimit="10"/>
<path d="M1474.63 2840.73C1474.63 2840.73 1809.71 1523.85 1409.91 1428.11C1010.11 1332.37 731.212 1988.83 636.986 1822.88C542.76 1656.92 843.509 547.686 332.562 1222.69C-178.384 1897.69 -800.667 484.754 -800.667 484.754" stroke="#F8F8F8" stroke-width="3" stroke-miterlimit="10"/>
<path d="M1458.05 2873.87C1458.05 2873.87 1813.99 1501.92 1413.92 1406.02C1014.5 1309.63 714.743 2002.86 620.517 1836.9C526.291 1670.95 852.879 529.565 341.659 1204.41C-169.56 1879.26 -824.276 497.27 -824.276 497.27" stroke="#F8F8F8" stroke-width="3" stroke-miterlimit="10"/>
</svg>
