<svg width="16" height="20" viewBox="0 0 16 20" fill="none" xmlns="http://www.w3.org/2000/svg">
<path d="M3 1H14C14.5523 1 15 1.44772 15 2V18C15 18.5523 14.5523 19 14 19H3" stroke="#163DA2"/>
<path d="M10.3536 10.3536C10.5488 10.1583 10.5488 9.84171 10.3536 9.64645L7.17157 6.46447C6.97631 6.2692 6.65973 6.2692 6.46447 6.46447C6.2692 6.65973 6.2692 6.97631 6.46447 7.17157L9.29289 10L6.46447 12.8284C6.2692 13.0237 6.2692 13.3403 6.46447 13.5355C6.65973 13.7308 6.97631 13.7308 7.17157 13.5355L10.3536 10.3536ZM0 10.5L10 10.5V9.5L0 9.5L0 10.5Z" fill="#163DA2"/>
</svg>
