<svg width="166" height="43" viewBox="0 0 166 43" fill="none" xmlns="http://www.w3.org/2000/svg">
<path d="M85.48 21.6616C85.5699 20.7103 85.3004 20.2257 84.5277 19.9565C84.1145 19.8129 83.6653 19.759 83.2341 19.7411C82.1201 19.7052 80.9881 19.7411 79.8741 19.7052C79.3171 19.6872 78.9578 19.436 78.9398 18.8077C78.9398 18.1975 79.2453 17.8564 79.8202 17.8564C81.4553 17.8744 83.0903 17.8205 84.7074 18.018C86.7917 18.2513 87.726 19.4539 87.726 21.5539C87.726 22.9001 87.726 24.2284 87.726 25.5745C87.726 27.531 86.8276 28.6079 84.8871 28.9489C84.402 29.0387 83.9168 29.0925 83.4317 29.0925C81.042 29.1105 78.6523 29.1284 76.2626 29.0746C75.4541 29.0566 74.6096 28.8951 73.837 28.6438C72.6691 28.2669 72.0941 27.3694 72.0762 26.1309C72.0762 25.7002 72.0762 25.2514 72.0762 24.8207C72.0941 23.295 72.741 22.3617 74.1964 21.9668C74.933 21.7693 75.7416 21.6796 76.5142 21.6616C79.2453 21.6257 81.9763 21.6437 84.7254 21.6437C84.959 21.6616 85.2285 21.6616 85.48 21.6616ZM85.5339 23.2591C82.4794 23.2591 79.5327 23.2412 76.586 23.2591C74.6635 23.2771 74.2323 23.7437 74.2503 25.6463C74.2503 26.4361 74.6276 26.8848 75.3463 27.0643C75.6697 27.154 76.0111 27.2079 76.3525 27.2079C78.6883 27.2258 81.042 27.2258 83.3778 27.2079C83.827 27.2079 84.3481 27.1361 84.7074 26.9028C85.0668 26.6874 85.4441 26.2566 85.498 25.8797C85.6238 25.054 85.5339 24.1925 85.5339 23.2591Z" fill="black"/>
<path d="M163.782 21.6616C163.817 20.6206 163.512 20.1001 162.614 19.9026C161.859 19.759 161.068 19.759 160.296 19.7231C159.541 19.6872 158.787 19.7411 158.032 19.6872C157.493 19.6514 157.205 19.3283 157.205 18.7539C157.205 18.2334 157.475 17.8564 157.978 17.8564C159.793 17.8923 161.643 17.8564 163.44 18.1257C165.219 18.3949 165.992 19.5616 165.992 21.3386C166.01 22.7565 165.992 24.1745 165.992 25.5745C165.992 27.4592 165.129 28.5182 163.26 28.8951C162.739 29.0028 162.2 29.0567 161.661 29.0567C159.29 29.0746 156.918 29.0925 154.564 29.0387C153.756 29.0208 152.911 28.8592 152.139 28.6079C150.935 28.213 150.36 27.3156 150.342 26.0412C150.342 25.6822 150.342 25.3053 150.342 24.9463C150.342 23.0796 151.15 22.1104 152.983 21.7693C153.612 21.6616 154.241 21.6078 154.87 21.6078C157.547 21.5898 160.242 21.6078 162.919 21.6078C163.189 21.6616 163.458 21.6616 163.782 21.6616ZM163.8 23.2771C163.53 23.2591 163.368 23.2412 163.207 23.2412C160.422 23.2412 157.637 23.2232 154.87 23.2412C152.911 23.2591 152.48 23.7437 152.516 25.6822C152.534 26.4002 152.875 26.831 153.522 27.0284C153.917 27.1361 154.331 27.2079 154.744 27.2079C157.008 27.2258 159.29 27.2258 161.554 27.2079C162.039 27.2079 162.524 27.0823 162.973 26.9387C163.512 26.7592 163.8 26.3284 163.8 25.772C163.817 24.9643 163.8 24.1566 163.8 23.2771Z" fill="black"/>
<path d="M57.4147 24.2823C57.4147 24.7131 57.4147 25.0182 57.4147 25.3233C57.4327 26.3644 57.7741 26.9029 58.8162 27.0465C59.8763 27.208 60.9543 27.1721 62.0144 27.2259C62.6073 27.2439 63.1823 27.208 63.7752 27.2618C64.2783 27.3157 64.5478 27.6747 64.5299 28.1772C64.5299 28.6798 64.2604 29.0747 63.7573 29.0747C61.8168 29.0208 59.8403 29.0747 57.9358 28.7875C55.9953 28.5003 55.2406 27.3516 55.2227 25.3951C55.2227 24.049 55.2227 22.7207 55.2227 21.3746C55.2406 19.4181 56.139 18.3412 58.0795 18.0181C58.6724 17.9104 59.3013 17.8565 59.8942 17.8745C62.4277 17.8924 64.9791 17.8386 67.4945 18.0181C69.6147 18.1796 70.4053 19.2386 70.4053 21.3746C70.4053 21.931 70.4053 22.5053 70.4053 23.0618C70.4053 24.0849 70.1897 24.2823 69.1476 24.2823C65.5361 24.2823 61.9246 24.2823 58.3131 24.2823C58.0615 24.2823 57.792 24.2823 57.4147 24.2823ZM57.4686 22.631C61.0621 22.631 64.6018 22.631 68.1234 22.631C68.5187 20.5669 67.8898 19.7591 65.8775 19.7412C63.919 19.7232 61.9785 19.7232 60.02 19.7412C57.7741 19.7412 57.271 20.2976 57.4686 22.631Z" fill="black"/>
<path d="M117.892 24.2828C117.838 24.4443 117.82 24.4981 117.82 24.534C117.695 26.5443 118.27 27.1726 120.3 27.2264C121.45 27.2444 122.6 27.2264 123.75 27.2444C124.576 27.2623 124.954 27.5674 124.936 28.1957C124.918 28.8059 124.576 29.1111 123.768 29.1111C122.151 29.0931 120.533 29.129 118.952 28.9495C116.599 28.6982 115.61 27.5136 115.61 25.1623C115.61 23.8879 115.61 22.6315 115.61 21.3571C115.628 19.4365 116.509 18.3775 118.395 18.0186C118.629 17.9647 118.88 17.9109 119.114 17.9109C122.043 17.9288 124.971 17.857 127.9 18.0186C129.984 18.1442 130.793 19.2391 130.811 21.3032C130.811 21.8596 130.811 22.434 130.811 22.9904C130.811 24.0853 130.613 24.2828 129.535 24.2828C125.942 24.2828 122.348 24.2828 118.773 24.2828C118.485 24.2828 118.198 24.2828 117.892 24.2828ZM117.82 22.5417C117.91 22.6135 117.928 22.6494 117.946 22.6494C121.36 22.6673 124.774 22.6853 128.188 22.6673C128.331 22.6673 128.583 22.3981 128.601 22.2366C128.835 20.5314 128.17 19.7596 126.427 19.7417C124.289 19.7058 122.133 19.7237 119.994 19.7417C119.563 19.7417 119.06 19.7955 118.737 20.0109C118.359 20.2801 118.018 20.7109 117.874 21.1596C117.695 21.6084 117.82 22.1289 117.82 22.5417Z" fill="black"/>
<path d="M95.7747 29.1108C94.3373 29.1108 92.8998 29.1108 91.4445 29.1108C90.4742 29.1108 90.0969 28.8236 90.1149 28.1595C90.1328 27.5134 90.5102 27.2441 91.4265 27.2441C94.1216 27.2441 96.7988 27.2441 99.494 27.2441C99.8174 27.2441 100.123 27.2441 100.446 27.2262C101.902 27.1185 102.261 26.6698 101.956 25.2518C101.902 25.0005 101.542 24.6954 101.273 24.6415C100.68 24.4979 100.069 24.462 99.458 24.4441C97.3558 24.3902 95.2536 24.3723 93.1694 24.2825C92.6303 24.2646 92.0733 24.0492 91.5523 23.8338C90.6898 23.4748 90.2406 22.7748 90.2406 21.8235C90.2406 21.4825 90.2406 21.1415 90.2406 20.8004C90.2586 19.6876 90.7617 18.826 91.8038 18.467C92.6842 18.1619 93.6365 17.9645 94.5708 17.8927C95.7028 17.8029 96.8707 17.8568 98.0206 17.8747C98.8112 17.8747 99.1526 18.1799 99.1526 18.8081C99.1526 19.4183 98.8112 19.7414 98.0206 19.7414C96.9426 19.7594 95.8645 19.7414 94.8044 19.7594C94.4091 19.7594 94.0318 19.8132 93.6365 19.885C92.5225 20.1184 92.0015 21.0876 92.5046 22.0748C92.6483 22.344 93.0436 22.5953 93.367 22.6492C94.0857 22.7748 94.8224 22.8107 95.5411 22.8287C97.5175 22.8825 99.494 22.9005 101.47 22.9902C101.973 23.0082 102.477 23.2056 102.944 23.403C103.77 23.7441 104.219 24.3543 104.184 25.2697C104.184 25.4492 104.166 25.6108 104.184 25.7903C104.327 27.639 103.806 28.6441 101.399 28.9313C99.5479 29.1467 97.6433 28.9672 95.7747 28.9672C95.7747 29.0031 95.7747 29.057 95.7747 29.1108Z" fill="black"/>
<path d="M109.143 19.7236C109.143 21.8775 109.143 23.9596 109.143 26.0237C109.143 26.7596 109.16 27.4776 109.143 28.2135C109.125 28.9673 108.801 29.2545 108.029 29.2545C107.274 29.2545 106.95 28.9494 106.932 28.2135C106.915 25.6109 106.932 23.0083 106.932 20.3877C106.932 20.1903 106.915 20.0108 106.897 19.8133C106.196 19.58 105.046 20.1005 105.046 18.8082C105.046 17.4979 106.178 18.0184 106.932 17.7851C106.932 17.1389 106.915 16.4928 106.932 15.8286C106.95 15.0748 107.256 14.7876 108.011 14.7876C108.765 14.7876 109.107 15.0927 109.125 15.8286C109.143 16.4748 109.125 17.1389 109.125 17.8569C110.328 17.8569 111.478 17.8569 112.61 17.8569C113.455 17.8569 113.814 18.1441 113.814 18.7902C113.814 19.4184 113.455 19.7056 112.61 19.7236C111.478 19.7236 110.364 19.7236 109.143 19.7236Z" fill="black"/>
<path d="M133.273 24.6776C133.273 23.7801 133.273 22.8827 133.273 21.9673C133.273 19.598 134.244 18.3954 136.597 18.0364C137.873 17.8569 139.167 17.8749 140.46 17.8569C141.017 17.839 141.377 18.1441 141.377 18.7724C141.377 19.3826 141.035 19.6698 140.478 19.7057C139.706 19.7416 138.915 19.6878 138.143 19.7416C137.622 19.7775 137.083 19.8672 136.579 20.0288C135.861 20.2621 135.483 20.7826 135.501 21.5724C135.519 23.7442 135.519 25.9161 135.501 28.07C135.501 28.9315 135.124 29.2725 134.28 29.2366C133.651 29.2007 133.273 28.8956 133.273 28.2315C133.273 27.0648 133.273 25.8622 133.273 24.6776Z" fill="black"/>
<path d="M143.389 24.6951C143.389 23.7976 143.389 22.9002 143.389 21.9848C143.389 19.5796 144.377 18.3591 146.767 18.018C148.007 17.8386 149.301 17.8745 150.558 17.8565C151.115 17.8386 151.493 18.1257 151.511 18.736C151.529 19.3822 151.169 19.6873 150.576 19.7053C149.822 19.7412 149.067 19.6873 148.312 19.7412C147.809 19.7771 147.288 19.8488 146.803 19.9924C145.941 20.2617 145.635 20.7104 145.617 21.6079C145.599 23.7438 145.617 25.8977 145.617 28.0336C145.617 28.8952 145.294 29.2362 144.503 29.2362C143.749 29.2362 143.407 28.949 143.407 28.1952C143.371 27.0464 143.389 25.8618 143.389 24.6951Z" fill="black"/>
<path d="M85.5323 23.2594C85.5323 24.1927 85.6221 25.0543 85.4963 25.8979C85.4424 26.2748 85.0651 26.7056 84.7057 26.921C84.3284 27.1543 83.8253 27.2082 83.3761 27.2261C81.0403 27.262 78.6866 27.2441 76.3508 27.2261C76.0094 27.2261 75.668 27.1723 75.3446 27.0825C74.6259 26.8851 74.2486 26.4363 74.2486 25.6645C74.2306 23.7619 74.6618 23.2953 76.5844 23.2773C79.5311 23.2414 82.4778 23.2594 85.5323 23.2594Z" fill="white"/>
<path d="M163.8 23.2774C163.8 24.1569 163.818 24.9646 163.8 25.7544C163.782 26.3287 163.513 26.7595 162.974 26.9211C162.525 27.0646 162.022 27.1903 161.554 27.1903C159.29 27.2262 157.009 27.2082 154.745 27.1903C154.331 27.1903 153.918 27.1185 153.523 27.0108C152.876 26.8134 152.535 26.3826 152.517 25.6646C152.481 23.7261 152.912 23.2415 154.87 23.2236C157.655 23.2056 160.44 23.2236 163.207 23.2236C163.387 23.2595 163.549 23.2774 163.8 23.2774Z" fill="white"/>
<path d="M57.4677 22.631C57.288 20.2977 57.7731 19.7592 60.0191 19.7412C61.9776 19.7233 63.9181 19.7233 65.8765 19.7412C67.8889 19.7592 68.5178 20.5669 68.1225 22.631C64.6008 22.631 61.0612 22.631 57.4677 22.631Z" fill="white"/>
<path d="M117.82 22.5416C117.82 22.1288 117.712 21.6082 117.856 21.1775C118 20.7467 118.341 20.298 118.718 20.0287C119.042 19.7954 119.545 19.7595 119.976 19.7595C122.114 19.7415 124.27 19.7236 126.409 19.7595C128.151 19.7774 128.798 20.5493 128.583 22.2544C128.565 22.416 128.313 22.6852 128.169 22.6852C124.756 22.7031 121.342 22.6852 117.928 22.6672C117.91 22.6493 117.892 22.6134 117.82 22.5416Z" fill="white"/>
<path d="M9.50025 4C9.50025 4 6.81043 7.67692 12.1901 6.8284C16.9368 5.69704 16.9368 4.84852 16.9368 4.84852L16.3039 4.28284C16.3039 4.28284 20.2595 4.42426 20.4178 4.42426C20.576 4.42426 22 7.81835 22 7.81835L20.4178 7.25266C20.4178 7.25266 11.5572 13.0509 6.17753 10.2225C2.22191 6.96982 9.50025 4 9.50025 4Z" fill="#2F498D"/>
<path d="M11.6073 13.1367V14.8777C11.6073 14.8777 22.5861 13.295 27.7618 3.95683C28.2323 0.316547 26.9776 0 26.9776 0C26.9776 0 31.8396 0.633094 31.9965 4.11511C32.1533 7.59712 27.1344 15.3525 12.0778 20.259C12.0778 21.3669 12.0778 22 12.0778 22L8 17.7266L11.6073 13.1367Z" fill="#53D4DC"/>
<path d="M28.1708 17.377L27.2362 16H33L31.9095 22.8852L30.5075 21.9671C30.5075 21.9671 15.3969 32.0654 5.11544 29.6173C-1.27152 28.0873 0.130495 21.9671 0.130495 21.9671C0.130495 21.9671 2.93453 26.0982 10.5677 24.8742C18.3567 23.1912 25.0552 20.1311 28.1708 17.377Z" fill="#2F498D"/>
<path d="M13.8207 31.987L11 36.3506L17.1115 39L16.6414 37.5974C16.6414 37.5974 27.2974 36.3506 37.1699 26.6883C42.968 20.9221 40.4607 15 40.4607 15C40.4607 15 37.4833 27.7792 15.0744 33.7013L13.8207 31.987Z" fill="#53D4DC"/>
<path d="M10 40.3219C10 40.3219 15.0337 42.2061 21.6404 40.0079C28.2472 37.8096 33.2809 34.5123 34.6966 33.0991C34.6966 32.314 34.6966 32 34.6966 32H38L34.8539 37.4956L34.6966 36.5535C34.6966 36.5535 27.9326 41.5781 20.0674 42.8342C12.3596 43.6193 10.6292 41.421 10 40.3219Z" fill="#2F498D"/>
</svg>
