<svg width="40" height="10" viewBox="0 0 40 10" fill="none" xmlns="http://www.w3.org/2000/svg">
<path d="M2.668 4.036L1.492 1.866H1.45V10H0.302V0.228H1.66L5.23 6.192L6.406 8.362H6.448V0.228H7.596V10H6.238L2.668 4.036ZM17.3184 10L16.3384 7.116H12.3904L11.4104 10H10.2204L13.6364 0.228H15.1344L18.5504 10H17.3184ZM14.3924 1.32H14.3224L12.6704 6.08H16.0444L14.3924 1.32ZM28.7852 1.768H28.7152L27.8892 3.406L25.5512 7.662L23.2132 3.406L22.3872 1.768H22.3172V10H21.1692V0.228H22.7372L25.5372 5.492H25.6072L28.4212 0.228H29.9332V10H28.7852V1.768ZM33.5305 10V0.228H39.4945V1.264H34.7065V4.54H39.2145V5.576H34.7065V8.964H39.4945V10H33.5305Z" fill="#163DA2"/>
</svg>
