<svg width="124" height="12" viewBox="0 0 124 12" fill="none" xmlns="http://www.w3.org/2000/svg">
<path d="M0.302 11V1.228H4.194C5.07133 1.228 5.74333 1.48 6.21 1.984C6.686 2.47867 6.924 3.16 6.924 4.028C6.924 4.896 6.686 5.582 6.21 6.086C5.74333 6.58067 5.07133 6.828 4.194 6.828H1.478V11H0.302ZM1.478 5.792H4.194C4.66067 5.792 5.02 5.67067 5.272 5.428C5.53333 5.18533 5.664 4.84 5.664 4.392V3.664C5.664 3.216 5.53333 2.87067 5.272 2.628C5.02 2.38533 4.66067 2.264 4.194 2.264H1.478V5.792ZM15.9102 6.576H10.9682V11H9.79223V1.228H10.9682V5.54H15.9102V1.228H17.0862V11H15.9102V6.576ZM24.3447 11.168C23.71 11.168 23.136 11.0607 22.6227 10.846C22.1187 10.622 21.6847 10.3 21.3207 9.88C20.966 9.45067 20.6907 8.92333 20.4947 8.298C20.2987 7.66333 20.2007 6.93533 20.2007 6.114C20.2007 5.29267 20.2987 4.56933 20.4947 3.944C20.6907 3.31867 20.966 2.79133 21.3207 2.362C21.6847 1.93267 22.1187 1.61067 22.6227 1.396C23.136 1.172 23.71 1.06 24.3447 1.06C24.97 1.06 25.5393 1.172 26.0527 1.396C26.566 1.61067 27 1.93267 27.3547 2.362C27.7187 2.79133 27.9987 3.31867 28.1947 3.944C28.3907 4.56933 28.4887 5.29267 28.4887 6.114C28.4887 6.93533 28.3907 7.66333 28.1947 8.298C27.9987 8.92333 27.7187 9.45067 27.3547 9.88C27 10.3 26.566 10.622 26.0527 10.846C25.5393 11.0607 24.97 11.168 24.3447 11.168ZM24.3447 10.118C24.7647 10.118 25.152 10.0433 25.5067 9.894C25.8613 9.74467 26.1647 9.53 26.4167 9.25C26.678 8.97 26.8787 8.634 27.0187 8.242C27.1587 7.85 27.2287 7.41133 27.2287 6.926V5.302C27.2287 4.81667 27.1587 4.378 27.0187 3.986C26.8787 3.594 26.678 3.258 26.4167 2.978C26.1647 2.698 25.8613 2.48333 25.5067 2.334C25.152 2.18467 24.7647 2.11 24.3447 2.11C23.9247 2.11 23.5373 2.18467 23.1827 2.334C22.828 2.48333 22.52 2.698 22.2587 2.978C22.0067 3.258 21.8107 3.594 21.6707 3.986C21.5307 4.378 21.4607 4.81667 21.4607 5.302V6.926C21.4607 7.41133 21.5307 7.85 21.6707 8.242C21.8107 8.634 22.0067 8.97 22.2587 9.25C22.52 9.53 22.828 9.74467 23.1827 9.894C23.5373 10.0433 23.9247 10.118 24.3447 10.118ZM33.9688 5.036L32.7928 2.866H32.7508V11H31.6028V1.228H32.9608L36.5308 7.192L37.7068 9.362H37.7488V1.228H38.8968V11H37.5388L33.9688 5.036ZM42.5012 11V1.228H48.4652V2.264H43.6772V5.54H48.1852V6.576H43.6772V9.964H48.4652V11H42.5012ZM58.3379 5.036L57.1619 2.866H57.1199V11H55.9719V1.228H57.3299L60.8999 7.192L62.0759 9.362H62.1179V1.228H63.2659V11H61.9079L58.3379 5.036ZM67.9764 1.228V7.276C67.9764 8.20933 68.149 8.91867 68.4944 9.404C68.8397 9.88 69.4464 10.118 70.3144 10.118C71.1824 10.118 71.789 9.88 72.1344 9.404C72.4797 8.91867 72.6524 8.20933 72.6524 7.276V1.228H73.8284V6.996C73.8284 7.70533 73.763 8.32133 73.6324 8.844C73.511 9.36667 73.3104 9.80067 73.0304 10.146C72.7504 10.4913 72.3817 10.748 71.9244 10.916C71.4764 11.084 70.9257 11.168 70.2724 11.168C69.619 11.168 69.0684 11.084 68.6204 10.916C68.1817 10.748 67.827 10.4913 67.5564 10.146C67.2857 9.80067 67.0897 9.36667 66.9684 8.844C66.8564 8.32133 66.8004 7.70533 66.8004 6.996V1.228H67.9764ZM84.9746 2.768H84.9046L84.0786 4.406L81.7406 8.662L79.4026 4.406L78.5766 2.768H78.5066V11H77.3586V1.228H78.9266L81.7266 6.492H81.7966L84.6106 1.228H86.1226V11H84.9746V2.768ZM89.72 1.228H93.738C94.55 1.228 95.1846 1.45667 95.642 1.914C96.1086 2.37133 96.342 2.98267 96.342 3.748C96.342 4.112 96.2906 4.42 96.188 4.672C96.0853 4.924 95.9546 5.134 95.796 5.302C95.6373 5.46067 95.4646 5.582 95.278 5.666C95.0913 5.74067 94.9186 5.792 94.76 5.82V5.904C94.9373 5.91333 95.1333 5.96 95.348 6.044C95.572 6.128 95.782 6.26333 95.978 6.45C96.174 6.62733 96.3373 6.86067 96.468 7.15C96.608 7.43 96.678 7.77067 96.678 8.172C96.678 8.57333 96.6126 8.94667 96.482 9.292C96.3606 9.63733 96.188 9.936 95.964 10.188C95.74 10.44 95.474 10.6407 95.166 10.79C94.858 10.93 94.522 11 94.158 11H89.72V1.228ZM90.896 9.964H93.794C94.298 9.964 94.6946 9.838 94.984 9.586C95.2733 9.32467 95.418 8.94667 95.418 8.452V7.976C95.418 7.48133 95.2733 7.108 94.984 6.856C94.6946 6.59467 94.298 6.464 93.794 6.464H90.896V9.964ZM90.896 5.456H93.598C94.0646 5.456 94.4286 5.33933 94.69 5.106C94.9513 4.87267 95.082 4.53667 95.082 4.098V3.622C95.082 3.18333 94.9513 2.84733 94.69 2.614C94.4286 2.38067 94.0646 2.264 93.598 2.264H90.896V5.456ZM99.8665 11V1.228H105.83V2.264H101.042V5.54H105.55V6.576H101.042V9.964H105.83V11H99.8665ZM110.205 11H109.029V1.228H112.921C113.779 1.228 114.447 1.466 114.923 1.942C115.408 2.418 115.651 3.104 115.651 4C115.651 4.71867 115.483 5.31133 115.147 5.778C114.82 6.23533 114.335 6.53867 113.691 6.688L115.931 11H114.601L112.487 6.8H110.205V11ZM112.921 5.792C113.387 5.792 113.747 5.67067 113.999 5.428C114.26 5.18533 114.391 4.84 114.391 4.392V3.664C114.391 3.216 114.26 2.87067 113.999 2.628C113.747 2.38533 113.387 2.264 112.921 2.264H110.205V5.792H112.921Z" fill="#163DA2"/>
<path d="M119.684 5.568L118.9 4.994L120.174 3.37L118.186 2.824L118.494 1.886L120.426 2.6L120.342 0.541999H121.322L121.238 2.6L123.17 1.886L123.478 2.824L121.49 3.37L122.764 4.994L121.98 5.568L120.832 3.846L119.684 5.568Z" fill="#EB1649"/>
</svg>
