<svg width="18" height="13" viewBox="0 0 18 13" fill="none" xmlns="http://www.w3.org/2000/svg">
<path d="M14.664 0.52C15.688 0.52 16.44 0.776001 16.92 1.288C17.368 1.832 17.592 2.52 17.592 3.352L17.592 4.024C17.592 5.336 17.208 6.776 16.44 8.344C15.672 9.944 14.6 11.336 13.224 12.52L10.008 12.52C10.968 11.496 11.752 10.52 12.36 9.592C12.936 8.696 13.352 7.688 13.608 6.568C12.968 6.408 12.504 6.104 12.216 5.656C11.896 5.208 11.736 4.664 11.736 4.024L11.736 3.352C11.736 2.52 11.976 1.832 12.456 1.288C12.904 0.776 13.64 0.52 14.664 0.52ZM4.968 0.519999C5.992 0.519999 6.744 0.776 7.224 1.288C7.672 1.832 7.896 2.52 7.896 3.352L7.896 4.024C7.896 5.336 7.512 6.776 6.744 8.344C5.976 9.944 4.904 11.336 3.528 12.52L0.311999 12.52C1.272 11.496 2.056 10.52 2.664 9.592C3.24 8.696 3.656 7.688 3.912 6.568C3.272 6.408 2.808 6.104 2.52 5.656C2.2 5.208 2.04 4.664 2.04 4.024L2.04 3.352C2.04 2.52 2.28 1.832 2.76 1.288C3.208 0.775999 3.944 0.519999 4.968 0.519999Z" fill="#EB1649"/>
</svg>
