<svg width="18" height="13" viewBox="0 0 18 13" fill="none" xmlns="http://www.w3.org/2000/svg">
<path d="M3.336 12.48C2.312 12.48 1.56 12.224 1.08 11.712C0.632 11.168 0.408 10.48 0.408 9.648V8.976C0.408 7.664 0.792 6.224 1.56 4.656C2.328 3.056 3.4 1.664 4.776 0.48H7.992C7.032 1.504 6.248 2.48 5.64 3.408C5.064 4.304 4.648 5.312 4.392 6.432C5.032 6.592 5.496 6.896 5.784 7.344C6.104 7.792 6.264 8.336 6.264 8.976V9.648C6.264 10.48 6.024 11.168 5.544 11.712C5.096 12.224 4.36 12.48 3.336 12.48ZM13.032 12.48C12.008 12.48 11.256 12.224 10.776 11.712C10.328 11.168 10.104 10.48 10.104 9.648V8.976C10.104 7.664 10.488 6.224 11.256 4.656C12.024 3.056 13.096 1.664 14.472 0.48H17.688C16.728 1.504 15.944 2.48 15.336 3.408C14.76 4.304 14.344 5.312 14.088 6.432C14.728 6.592 15.192 6.896 15.48 7.344C15.8 7.792 15.96 8.336 15.96 8.976V9.648C15.96 10.48 15.72 11.168 15.24 11.712C14.792 12.224 14.056 12.48 13.032 12.48Z" fill="#EB1649"/>
</svg>
